{"title":"WWE-TNA-ROH Omega Wrestling 2014.04.26 DVDRip x264 3vil","uid":10175002,"size":2192607345,"categoryP":"video","categoryS":"tv_shows","magnet":"?xt=urn:btih:b8f22581ad12c6ba3f45ceadfe3cc8aae19457c8&amp;dn=WWE-TNA-ROH+Omega+Wrestling+2014.04.26+DVDRip+x264+3vil&amp;tr=udp%3A%2F%2Ftracker.openbittorrent.com%3A80&amp;tr=udp%3A%2F%2Fopen.demonii.com%3A1337&amp;tr=udp%3A%2F%2Ftracker.coppersurfer.tk%3A6969&amp;tr=udp%3A%2F%2Fexodus.desync.com%3A6969","seeders":0,"leechers":0,"uploader":null,"files":-1,"time":1400453229,"description":"Description: OMEGA Championship Wrestling presents: \n&quot;Chaos in Cameron: A Hardy Homecoming&quot; \nApril 26th, 2014 \nCameron, NC! \n\n1.  Cedric Alexander vs. Xsiris \n2.  Andrew Everett vs. Jake Manning \n3.  Adam Page vs. Trevor Lee \n4. Caprice Coleman vs. Ric Converse \n5. Reby Sky vs. D'arcy Dixon \n6. Shane &quot;Hurricane&quot; Helms &amp; The Bravado Brothers vs. \n7. CW Anderson, Caleb Konley &amp; Micky Gambino \n8. The Hardy Boyz (Matt &amp; Jeff Hardy) vs. \n    The Briscoe Brothers (Mark &amp; Jay Briscoe) \n\n*Video* \nID                                      : 2 \nFormat profile                          : &lt;a class=&quot;__cf_email__&quot; href=&quot;/cdn-cgi/l/email-protection&quot; data-cfemail=&quot;a6e4c7d5c3cacfc8c3e6ea958896&quot;&gt;[email&amp;#160;protected]&lt;/a&gt;&lt;script data-cfhash='f9e31' type=&quot;text/javascript&quot;&gt;\n/* &lt;![CDATA[ */!function(){try{var t=&quot;currentScript&quot;in document?document.currentScript:function(){for(var t=document.getElementsByTagName(&quot;script&quot;),e=t.length;e--;)if(t[e].getAttribute(&quot;data-cfhash&quot;))return t[e]}();if(t&amp;&amp;t.previousSibling){var e,r,n,i,c=t.previousSibling,a=c.getAttribute(&quot;data-cfemail&quot;);if(a){for(e=&quot;&quot;,r=parseInt(a.substr(0,2),16),n=2;a.length-n;n+=2)i=parseInt(a.substr(n,2),16)^r,e+=String.fromCharCode(i);e=document.createTextNode(e),c.parentNode.replaceChild(e,c)}t.parentNode.removeChild(t);}}catch(u){}}()/* ]]&gt; */&lt;/script&gt; \nBit rate                                : 1 962 Kbps \nWidth                                    : 848 pixels \nHeight                                  : 480 pixels \nDisplay aspect ratio                    : 16:9 \nFrame rate mode                          : Constant \nFrame rate                              : 29.970 fps \nOriginal frame rate                      : 29.000 fps \nColor space                              : YUV \nChroma subsampling                      : 4:2:0 \nBit depth                                : 8 bits \nScan type                                : Progressive \nBits/(Pixel*Frame)                      : 0.161 \nStream size                              : 1.91 GiB (94%) \nLanguage                                : English \nLength                                    : 02:19:24 \n\n*Audio* \nID                                      : 1 \nFormat                                  : AAC \nFormat profile                          : LC \nBit rate mode                            : Variable \nBit rate                                : 128 Kbps \nMaximum bit rate                        : 243 Kbps \nChannel(s)                              : 2 channels \nChannel positions                        : Front: L R \nSampling rate                            : 48.0 KHz \nCompression mode                        : Lossy \nStream size                              : 127 MiB (6%) \nLanguage                                : English ","torrent":{"xt":"urn:btih:b8f22581ad12c6ba3f45ceadfe3cc8aae19457c8","amp;dn":"WWE-TNA-ROH+Omega+Wrestling+2014.04.26+DVDRip+x264+3vil","amp;tr":["udp%3A%2F%2Ftracker.openbittorrent.com%3A80","udp%3A%2F%2Fopen.demonii.com%3A1337","udp%3A%2F%2Ftracker.coppersurfer.tk%3A6969","udp%3A%2F%2Fexodus.desync.com%3A6969"],"infoHash":"b8f22581ad12c6ba3f45ceadfe3cc8aae19457c8","infoHashBuffer":{"type":"Buffer","data":[184,242,37,129,173,18,198,186,63,69,206,173,254,60,200,170,225,148,87,200]},"announce":[],"urlList":[]}}